<?xml version="1.0" encoding="utf-8"?>
<!-- Generator: Adobe Illustrator 16.0.3, SVG Export Plug-In . SVG Version: 6.00 Build 0)  -->
<!DOCTYPE svg PUBLIC "-//W3C//DTD SVG 1.1//EN" "http://www.w3.org/Graphics/SVG/1.1/DTD/svg11.dtd">
<svg version="1.1" id="Layer_1" xmlns="http://www.w3.org/2000/svg" xmlns:xlink="http://www.w3.org/1999/xlink" x="0px" y="0px"
	 width="16.032px" height="16.033px" viewBox="0 0 16.032 16.033" enable-background="new 0 0 16.032 16.033" xml:space="preserve">
<g>
	<circle fill="#FAAC1A" cx="8.016" cy="8.017" r="8.016"/>
	<g>
		<path fill="#FFFFFF" d="M12.025,12.764c-0.188,0-0.377-0.072-0.521-0.217L3.251,4.294c-0.288-0.289-0.288-0.755,0-1.043
			c0.289-0.288,0.755-0.288,1.043,0l8.252,8.253c0.289,0.288,0.289,0.756,0,1.043C12.402,12.691,12.214,12.764,12.025,12.764z"/>
	</g>
	<g>
		<path fill="#FFFFFF" d="M3.772,12.764c-0.189,0-0.377-0.072-0.521-0.217c-0.288-0.287-0.288-0.755,0-1.043l8.254-8.253
			c0.287-0.288,0.753-0.288,1.042,0c0.289,0.289,0.289,0.755,0,1.043l-8.252,8.252C4.15,12.691,3.961,12.764,3.772,12.764z"/>
	</g>
</g>
</svg>
