<?xml version="1.0" encoding="utf-8"?>
<!-- Generator: Adobe Illustrator 16.0.3, SVG Export Plug-In . SVG Version: 6.00 Build 0)  -->
<!DOCTYPE svg PUBLIC "-//W3C//DTD SVG 1.1//EN" "http://www.w3.org/Graphics/SVG/1.1/DTD/svg11.dtd">
<svg version="1.1" id="Capa_1" xmlns="http://www.w3.org/2000/svg" xmlns:xlink="http://www.w3.org/1999/xlink" x="0px" y="0px"
	 width="94.279px" height="94.28px" viewBox="382.805 256.5 94.279 94.28" enable-background="new 382.805 256.5 94.279 94.28"
	 xml:space="preserve">
<g>
	<path fill="#898889" d="M466.343,257.084c-5.602,0-10.157,4.556-10.157,10.158c0,1.752,0.445,3.401,1.229,4.842l-16.64,16.64
		c-2.294-1.786-5.166-2.859-8.291-2.859s-5.996,1.074-8.292,2.858l-12.983-12.983c0.596-1.007,0.96-2.165,0.96-3.418
		c0-3.735-3.037-6.772-6.772-6.772c-3.734,0-6.771,3.037-6.771,6.772s3.037,6.772,6.771,6.772c1.253,0,2.411-0.364,3.418-0.96
		l12.983,12.983c-1.784,2.296-2.858,5.167-2.858,8.292c0,3.125,1.074,5.996,2.858,8.29l-21.439,21.441
		c-1.805-1.638-4.19-2.645-6.812-2.645c-5.602,0-10.158,4.556-10.158,10.158c0,5.602,4.556,10.157,10.158,10.157
		s10.158-4.556,10.158-10.157c0-1.752-0.445-3.401-1.229-4.842l21.719-21.719c1.872,1.455,4.131,2.431,6.6,2.74v17.2
		c-4.797,0.81-8.465,4.98-8.465,10.006c0,5.602,4.556,10.157,10.157,10.157s10.157-4.556,10.157-10.157
		c0-5.023-3.668-9.194-8.464-10.006v-17.2c2.468-0.31,4.727-1.285,6.599-2.74l12.983,12.982c-0.598,1.01-0.962,2.167-0.962,3.42
		c0,3.734,3.037,6.772,6.772,6.772c3.734,0,6.771-3.038,6.771-6.772s-3.037-6.771-6.771-6.771c-1.253,0-2.411,0.364-3.418,0.96
		L443.17,307.7c1.784-2.296,2.857-5.167,2.857-8.292c0-3.125-1.073-5.997-2.857-8.291l16.362-16.362
		c1.803,1.637,4.188,2.644,6.811,2.644c5.602,0,10.157-4.556,10.157-10.157C476.5,261.64,471.945,257.084,466.343,257.084z
		 M402.011,272.321c0-1.867,1.519-3.386,3.386-3.386s3.386,1.519,3.386,3.386s-1.519,3.386-3.386,3.386
		S402.011,274.188,402.011,272.321z M393.546,343.425c-3.734,0-6.771-3.037-6.771-6.771c0-3.735,3.037-6.772,6.771-6.772
		s6.772,3.037,6.772,6.772C400.318,340.387,397.281,343.425,393.546,343.425z M439.256,340.039c0,3.734-3.037,6.771-6.772,6.771
		c-3.734,0-6.771-3.037-6.771-6.771s3.037-6.771,6.771-6.771C436.219,333.267,439.256,336.304,439.256,340.039z M432.484,309.565
		c-5.602,0-10.157-4.556-10.157-10.157c0-5.602,4.556-10.158,10.157-10.158c5.603,0,10.158,4.556,10.158,10.158
		C442.642,305.01,438.086,309.565,432.484,309.565z M462.957,326.495c0,1.867-1.519,3.386-3.386,3.386s-3.386-1.519-3.386-3.386
		s1.519-3.386,3.386-3.386S462.957,324.628,462.957,326.495z M466.343,274.013c-3.734,0-6.771-3.037-6.771-6.771
		c0-3.735,3.037-6.772,6.771-6.772s6.771,3.037,6.771,6.772C473.115,270.976,470.077,274.013,466.343,274.013z"/>
	<path fill="#FBFBFB" d="M432.486,350.78c-5.923,0-10.741-4.818-10.741-10.741c0-5.09,3.53-9.424,8.465-10.487v-16.213
		c-2.146-0.351-4.188-1.199-5.961-2.477l-21.059,21.06c0.72,1.465,1.098,3.091,1.098,4.731c0,5.923-4.818,10.741-10.741,10.741
		s-10.741-4.818-10.741-10.741s4.818-10.741,10.741-10.741c2.475,0,4.862,0.859,6.783,2.432l20.699-20.7
		c-1.75-2.42-2.671-5.256-2.671-8.235s0.921-5.816,2.671-8.237l-12.314-12.314c-1.052,0.544-2.166,0.82-3.316,0.82
		c-4.056,0-7.355-3.3-7.355-7.355s3.3-7.355,7.355-7.355s7.355,3.3,7.355,7.355c0,1.151-0.275,2.264-0.82,3.316l12.315,12.314
		c2.42-1.749,5.257-2.671,8.236-2.671c2.981,0,5.817,0.922,8.236,2.672l15.98-15.98c-0.721-1.465-1.099-3.091-1.099-4.73
		c0-5.923,4.818-10.742,10.741-10.742s10.741,4.819,10.741,10.742c0,5.922-4.818,10.741-10.741,10.741
		c-2.475,0-4.861-0.86-6.781-2.432l-15.621,15.621c1.749,2.419,2.671,5.255,2.671,8.236c0,2.979-0.922,5.816-2.671,8.237
		l12.314,12.314c1.052-0.545,2.166-0.82,3.316-0.82c4.056,0,7.355,3.3,7.355,7.355s-3.3,7.355-7.355,7.355s-7.355-3.3-7.355-7.355
		c0-1.15,0.276-2.265,0.821-3.317l-12.314-12.315c-1.772,1.277-3.814,2.126-5.961,2.477v16.213
		c4.935,1.064,8.465,5.398,8.465,10.487C443.227,345.962,438.408,350.78,432.486,350.78z M424.145,309.315l0.407,0.316
		c1.836,1.428,4.02,2.334,6.313,2.622l0.511,0.064v18.209l-0.486,0.082c-4.623,0.78-7.979,4.745-7.979,9.43
		c0,5.279,4.295,9.574,9.574,9.574s9.574-4.295,9.574-9.574c0-4.683-3.355-8.648-7.979-9.43l-0.486-0.082v-18.209l0.511-0.064
		c2.295-0.288,4.478-1.194,6.313-2.622l0.406-0.316l13.669,13.668l-0.231,0.39c-0.584,0.986-0.88,2.037-0.88,3.122
		c0,3.412,2.776,6.188,6.188,6.188s6.188-2.776,6.188-6.188s-2.775-6.188-6.188-6.188c-1.086,0-2.136,0.295-3.121,0.878l-0.39,0.23
		l-13.668-13.667l0.316-0.407c1.789-2.302,2.734-5.045,2.734-7.934c0-2.89-0.945-5.632-2.734-7.932l-0.316-0.407l17.12-17.12
		l0.411,0.374c1.771,1.607,4.051,2.493,6.419,2.493c5.279,0,9.574-4.295,9.574-9.574c0-5.279-4.295-9.574-9.574-9.574
		s-9.574,4.295-9.574,9.574c0,1.592,0.4,3.17,1.158,4.562l0.209,0.383l-17.313,17.313l-0.407-0.317
		c-2.299-1.79-5.041-2.736-7.932-2.736c-2.889,0-5.632,0.946-7.934,2.735l-0.406,0.316l-13.668-13.667l0.23-0.39
		c0.583-0.986,0.878-2.036,0.878-3.121c0-3.412-2.776-6.188-6.188-6.188s-6.188,2.776-6.188,6.188s2.776,6.188,6.188,6.188
		c1.086,0,2.136-0.295,3.121-0.878l0.39-0.231l13.668,13.668l-0.316,0.407c-1.789,2.302-2.735,5.045-2.735,7.934
		s0.945,5.632,2.735,7.932l0.316,0.406l-22.197,22.2l-0.412-0.374c-1.772-1.607-4.052-2.493-6.42-2.493
		c-5.279,0-9.574,4.295-9.574,9.574c0,5.278,4.295,9.573,9.574,9.573s9.574-4.295,9.574-9.573c0-1.593-0.4-3.171-1.158-4.563
		l-0.208-0.383L424.145,309.315z M432.484,347.394c-4.056,0-7.355-3.3-7.355-7.355s3.3-7.355,7.355-7.355s7.355,3.3,7.355,7.355
		S436.539,347.394,432.484,347.394z M432.484,333.85c-3.411,0-6.188,2.776-6.188,6.188s2.776,6.188,6.188,6.188
		c3.412,0,6.188-2.775,6.188-6.188S435.896,333.85,432.484,333.85z M393.546,344.009c-4.056,0-7.355-3.3-7.355-7.355
		s3.3-7.355,7.355-7.355s7.355,3.3,7.355,7.355S397.602,344.009,393.546,344.009z M393.546,330.465
		c-3.412,0-6.188,2.776-6.188,6.188s2.776,6.188,6.188,6.188s6.188-2.775,6.188-6.188S396.958,330.465,393.546,330.465z
		 M459.572,330.465c-2.189,0-3.97-1.78-3.97-3.97c0-2.188,1.78-3.97,3.97-3.97c2.188,0,3.97,1.781,3.97,3.97
		C463.541,328.684,461.76,330.465,459.572,330.465z M459.572,323.693c-1.545,0-2.803,1.257-2.803,2.802
		c0,1.546,1.258,2.803,2.803,2.803s2.802-1.257,2.802-2.803C462.373,324.95,461.116,323.693,459.572,323.693z M432.484,310.149
		c-5.923,0-10.741-4.818-10.741-10.741s4.818-10.742,10.741-10.742s10.742,4.819,10.742,10.742S438.406,310.149,432.484,310.149z
		 M432.484,289.834c-5.278,0-9.573,4.295-9.573,9.574s4.295,9.574,9.573,9.574c5.279,0,9.574-4.295,9.574-9.574
		S437.763,289.834,432.484,289.834z M405.397,276.29c-2.188,0-3.97-1.781-3.97-3.97s1.781-3.97,3.97-3.97
		c2.189,0,3.97,1.781,3.97,3.97S407.586,276.29,405.397,276.29z M405.397,269.518c-1.545,0-2.802,1.257-2.802,2.802
		c0,1.545,1.257,2.802,2.802,2.802s2.802-1.257,2.802-2.802C408.199,270.776,406.942,269.518,405.397,269.518z M466.343,274.597
		c-4.056,0-7.355-3.3-7.355-7.355c0-4.056,3.3-7.356,7.355-7.356s7.355,3.3,7.355,7.356
		C473.698,271.298,470.399,274.597,466.343,274.597z M466.343,261.053c-3.412,0-6.188,2.776-6.188,6.188s2.775,6.188,6.188,6.188
		s6.188-2.776,6.188-6.188S469.755,261.053,466.343,261.053z"/>
</g>
<g>
	<g>
		<path fill="#898889" d="M453.881,299.512c0-12.651-10.293-22.944-22.944-22.944c-12.65,0-22.943,10.293-22.943,22.944
			c0,6.682,2.873,12.705,7.447,16.901l-0.022,0.02l0.744,0.627c0.048,0.041,0.101,0.074,0.149,0.114
			c0.396,0.328,0.805,0.639,1.222,0.94c0.135,0.098,0.271,0.195,0.408,0.29c0.446,0.308,0.903,0.599,1.37,0.875
			c0.102,0.06,0.204,0.118,0.307,0.177c0.512,0.291,1.034,0.565,1.569,0.817c0.039,0.019,0.079,0.035,0.119,0.054
			c1.743,0.811,3.604,1.405,5.549,1.756c0.051,0.01,0.102,0.019,0.153,0.028c0.604,0.104,1.215,0.188,1.834,0.243
			c0.074,0.007,0.149,0.011,0.226,0.018c0.615,0.051,1.238,0.084,1.868,0.084c0.626,0,1.242-0.033,1.854-0.083
			c0.077-0.006,0.155-0.01,0.233-0.017c0.612-0.057,1.219-0.138,1.816-0.24c0.052-0.009,0.104-0.018,0.156-0.027
			c1.916-0.345,3.75-0.926,5.471-1.715c0.063-0.029,0.128-0.058,0.191-0.087c0.515-0.242,1.018-0.503,1.511-0.781
			c0.123-0.069,0.244-0.139,0.366-0.211c0.448-0.265,0.89-0.541,1.319-0.834c0.154-0.105,0.305-0.216,0.458-0.326
			c0.366-0.264,0.726-0.536,1.075-0.82c0.077-0.062,0.161-0.117,0.237-0.182l0.763-0.637l-0.022-0.02
			C450.981,312.279,453.881,306.228,453.881,299.512z M409.662,299.512c0-11.732,9.544-21.276,21.275-21.276
			c11.731,0,21.276,9.544,21.276,21.276c0,6.321-2.774,12.005-7.166,15.904c-0.245-0.169-0.492-0.321-0.745-0.448l-7.064-3.531
			c-0.634-0.317-1.028-0.954-1.028-1.663v-2.467c0.164-0.202,0.337-0.431,0.516-0.682c0.914-1.292,1.647-2.729,2.182-4.274
			c1.058-0.502,1.739-1.555,1.739-2.744v-2.958c0-0.723-0.265-1.425-0.739-1.977v-3.894c0.044-0.433,0.197-2.877-1.571-4.893
			c-1.537-1.755-4.026-2.644-7.398-2.644c-3.371,0-5.859,0.889-7.397,2.643c-1.768,2.016-1.614,4.459-1.571,4.893v3.894
			c-0.474,0.552-0.74,1.253-0.74,1.977v2.958c0,0.919,0.413,1.775,1.118,2.354c0.677,2.647,2.066,4.651,2.581,5.331v2.414
			c0,0.681-0.371,1.307-0.97,1.634l-6.597,3.599c-0.211,0.114-0.419,0.248-0.627,0.396
			C412.395,311.436,409.662,305.788,409.662,299.512z M443.418,316.726c-0.292,0.211-0.589,0.417-0.891,0.613
			c-0.138,0.09-0.275,0.18-0.417,0.268c-0.394,0.243-0.794,0.476-1.203,0.692c-0.09,0.048-0.181,0.093-0.271,0.14
			c-0.939,0.481-1.911,0.895-2.91,1.231c-0.035,0.011-0.07,0.023-0.106,0.035c-0.522,0.174-1.053,0.328-1.588,0.461
			c-0.002,0-0.004,0.001-0.006,0.001c-0.54,0.134-1.088,0.244-1.639,0.335c-0.015,0.003-0.029,0.006-0.045,0.009
			c-0.518,0.084-1.04,0.146-1.564,0.191c-0.092,0.008-0.185,0.014-0.278,0.021c-0.519,0.039-1.039,0.063-1.562,0.063
			c-0.528,0-1.056-0.025-1.58-0.064c-0.091-0.007-0.183-0.013-0.272-0.021c-0.528-0.046-1.056-0.108-1.577-0.193
			c-0.023-0.005-0.046-0.009-0.069-0.013c-1.104-0.185-2.189-0.456-3.246-0.811c-0.032-0.011-0.065-0.022-0.099-0.033
			c-0.524-0.179-1.043-0.376-1.554-0.595c-0.003-0.002-0.007-0.004-0.011-0.005c-0.481-0.208-0.955-0.438-1.422-0.681
			c-0.062-0.032-0.123-0.062-0.183-0.095c-0.426-0.228-0.843-0.474-1.254-0.73c-0.122-0.077-0.243-0.154-0.363-0.233
			c-0.379-0.248-0.752-0.505-1.116-0.778c-0.038-0.028-0.073-0.059-0.111-0.087c0.027-0.015,0.054-0.03,0.081-0.045l6.597-3.599
			c1.135-0.618,1.84-1.806,1.84-3.099l-0.001-3.005l-0.192-0.232c-0.018-0.021-1.822-2.215-2.504-5.186l-0.076-0.331l-0.284-0.184
			c-0.401-0.26-0.642-0.693-0.642-1.162v-2.957c0-0.388,0.165-0.75,0.465-1.021l0.275-0.249v-4.647l-0.008-0.109
			c-0.002-0.02-0.248-2.026,1.165-3.638c1.207-1.375,3.274-2.073,6.143-2.073c2.859,0,4.92,0.692,6.13,2.058
			c1.411,1.594,1.181,3.638,1.179,3.655l-0.008,4.757l0.275,0.249c0.3,0.271,0.465,0.632,0.465,1.021v2.958
			c0,0.595-0.404,1.135-0.985,1.314l-0.414,0.127l-0.134,0.413c-0.492,1.53-1.193,2.942-2.083,4.198
			c-0.218,0.309-0.431,0.583-0.614,0.792l-0.206,0.236v3.086c0,1.345,0.747,2.555,1.95,3.155l7.064,3.532
			c0.045,0.022,0.09,0.046,0.134,0.069C443.6,316.598,443.508,316.661,443.418,316.726z"/>
		<path fill="#898889" d="M430.937,323.082c-0.594,0-1.222-0.027-1.92-0.086c-0.037-0.003-0.071-0.006-0.105-0.008
			c-0.041-0.003-0.083-0.006-0.125-0.01c-0.611-0.055-1.228-0.137-1.883-0.25l-0.159-0.028c-1.974-0.356-3.892-0.964-5.701-1.805
			l-0.047-0.021c-0.025-0.011-0.05-0.021-0.074-0.033c-0.524-0.247-1.066-0.529-1.612-0.84c-0.105-0.061-0.211-0.12-0.315-0.182
			c-0.484-0.287-0.958-0.589-1.407-0.898c-0.142-0.098-0.281-0.198-0.419-0.299c-0.471-0.34-0.882-0.655-1.255-0.966
			c-0.013-0.011-0.028-0.021-0.042-0.031c-0.038-0.027-0.074-0.055-0.11-0.085l-1.299-1.096l0.052-0.046
			c-4.55-4.429-7.146-10.543-7.146-16.886c0-12.997,10.573-23.57,23.569-23.57c12.997,0,23.57,10.573,23.57,23.57
			c0,6.373-2.614,12.506-7.197,16.938l0.055,0.046l-1.337,1.117c-0.051,0.042-0.106,0.083-0.161,0.124
			c-0.028,0.021-0.058,0.042-0.085,0.063c-0.334,0.272-0.695,0.548-1.103,0.842l-0.097,0.07c-0.124,0.089-0.248,0.179-0.375,0.265
			c-0.414,0.283-0.856,0.564-1.354,0.856c-0.125,0.074-0.251,0.146-0.377,0.217c-0.515,0.29-1.036,0.561-1.552,0.803
			c-0.039,0.019-0.08,0.037-0.121,0.055l-0.074,0.034c-1.79,0.821-3.682,1.414-5.622,1.762c-0.035,0.007-0.078,0.015-0.121,0.022
			l-0.036,0.006c-0.626,0.107-1.254,0.19-1.869,0.247c-0.046,0.004-0.088,0.007-0.13,0.01c-0.035,0.002-0.071,0.005-0.107,0.008
			C432.138,323.054,431.516,323.082,430.937,323.082z M416.36,316.408l0.207,0.175c0.013,0.011,0.028,0.021,0.043,0.032
			c0.034,0.024,0.068,0.05,0.101,0.078c0.353,0.292,0.742,0.591,1.19,0.915c0.132,0.095,0.264,0.19,0.397,0.282
			c0.425,0.293,0.874,0.579,1.333,0.851c0.098,0.058,0.198,0.115,0.298,0.172c0.518,0.295,1.031,0.562,1.525,0.795l0.117,0.053
			c1.711,0.796,3.526,1.37,5.396,1.708l0.153,0.027c0.618,0.106,1.201,0.184,1.778,0.236c0.034,0.003,0.068,0.005,0.104,0.008
			c0.04,0.003,0.081,0.006,0.121,0.01c0.66,0.054,1.255,0.081,1.813,0.081c0.545,0,1.136-0.026,1.805-0.08
			c0.039-0.004,0.081-0.006,0.123-0.009l0.106-0.009c0.579-0.053,1.174-0.131,1.765-0.232l0.035-0.006
			c0.036-0.007,0.072-0.014,0.108-0.021c1.845-0.331,3.635-0.892,5.328-1.669l0.086-0.038c0.033-0.016,0.066-0.03,0.099-0.046
			c0.488-0.229,0.982-0.484,1.471-0.76c0.12-0.067,0.237-0.136,0.356-0.205c0.472-0.278,0.892-0.543,1.283-0.812
			c0.117-0.08,0.231-0.162,0.346-0.246l0.1-0.071c0.387-0.278,0.729-0.539,1.047-0.798c0.044-0.036,0.088-0.068,0.132-0.101
			c0.032-0.024,0.065-0.048,0.096-0.073l0.227-0.189l0.497-0.452c4.646-4.227,7.311-10.242,7.311-16.502
			c0-12.307-10.013-22.319-22.319-22.319c-12.306,0-22.318,10.012-22.318,22.319c0,6.224,2.641,12.216,7.245,16.44L416.36,316.408z
			 M430.937,321.413c-0.492,0-1.025-0.021-1.627-0.066l-0.08-0.006c-0.068-0.005-0.135-0.01-0.202-0.016
			c-0.581-0.052-1.112-0.117-1.621-0.2l-0.077-0.014c-1.126-0.188-2.25-0.469-3.337-0.833l-0.098-0.033
			c-0.553-0.188-1.091-0.395-1.602-0.613l-0.025-0.012c-0.448-0.193-0.924-0.421-1.45-0.694l-0.062-0.032
			c-0.043-0.022-0.087-0.044-0.129-0.067c-0.402-0.214-0.825-0.46-1.288-0.75c-0.127-0.08-0.251-0.159-0.374-0.24
			c-0.422-0.275-0.798-0.538-1.149-0.801c-0.025-0.019-0.047-0.036-0.069-0.054l-0.043-0.034l-0.762-0.574l0.915-0.518l6.602-3.601
			c0.934-0.51,1.514-1.486,1.514-2.55l-0.001-2.779l-0.049-0.059l0.001-0.001c-0.174-0.212-1.942-2.441-2.632-5.444l-0.02-0.083
			l-0.071-0.047c-0.581-0.375-0.927-1.005-0.927-1.687v-2.957c0-0.567,0.238-1.094,0.671-1.485l0.068-0.062l-0.005-4.422
			c-0.025-0.241-0.201-2.375,1.317-4.106c1.331-1.517,3.557-2.286,6.613-2.286c3.044,0,5.264,0.763,6.598,2.268
			c1.493,1.686,1.367,3.771,1.336,4.102l-0.007,4.447l0.068,0.062c0.434,0.391,0.672,0.918,0.672,1.485v2.958
			c0,0.866-0.587,1.652-1.427,1.912l-0.104,0.032l-0.033,0.103c-0.512,1.59-1.241,3.06-2.168,4.368
			c-0.228,0.32-0.453,0.611-0.652,0.841l-0.054,0.061v2.851c0,1.106,0.615,2.102,1.604,2.596l7.064,3.532
			c0.043,0.021,0.085,0.043,0.127,0.065l0.889,0.468l-0.783,0.594c-0.063,0.048-0.127,0.094-0.191,0.139l-0.091,0.065
			c-0.312,0.226-0.62,0.438-0.917,0.631l-0.032,0.021c-0.131,0.085-0.262,0.17-0.395,0.253c-0.43,0.266-0.835,0.499-1.241,0.714
			c-0.062,0.033-0.126,0.065-0.188,0.098l-0.091,0.046c-0.978,0.501-1.986,0.928-2.996,1.268l-0.113,0.038
			c-0.538,0.179-1.088,0.338-1.63,0.473l-0.077,0.019c-0.52,0.126-1.062,0.236-1.615,0.327l-0.047,0.009
			c-0.499,0.082-1.026,0.146-1.61,0.197c-0.071,0.006-0.144,0.012-0.217,0.017l-0.071,0.005
			C431.961,321.391,431.435,321.413,430.937,321.413z M422.801,318.487c0.477,0.204,0.979,0.396,1.494,0.571l0.095,0.032
			c1.025,0.345,2.084,0.608,3.15,0.787l0.076,0.014c0.471,0.076,0.972,0.138,1.522,0.187c0.062,0.006,0.121,0.01,0.181,0.015
			l0.084,0.006c0.57,0.043,1.072,0.063,1.533,0.063c0.466,0,0.962-0.021,1.516-0.062l0.076-0.006
			c0.065-0.004,0.13-0.009,0.193-0.015c0.555-0.048,1.051-0.109,1.52-0.185l0.045-0.009c0.545-0.09,1.081-0.2,1.59-0.325
			l0.075-0.019c0.487-0.122,0.982-0.267,1.471-0.43l0.107-0.035c0.947-0.319,1.897-0.722,2.821-1.194l0.096-0.05
			c0.057-0.028,0.112-0.057,0.169-0.086c0.38-0.202,0.762-0.422,1.166-0.672c0.125-0.077,0.248-0.158,0.372-0.238l0.033-0.021
			c0.096-0.062,0.192-0.127,0.29-0.193l-6.265-3.133c-1.417-0.707-2.297-2.13-2.297-3.715v-3.321l0.362-0.413
			c0.171-0.197,0.37-0.454,0.573-0.741c0.854-1.204,1.525-2.56,1.998-4.028l0.233-0.724l0.726-0.224
			c0.32-0.099,0.544-0.393,0.544-0.716v-2.958c0-0.211-0.089-0.404-0.258-0.556l-0.482-0.435l0.013-5.109
			c0.001-0.014,0.18-1.804-1.026-3.166c-1.086-1.225-2.99-1.847-5.661-1.847c-2.681,0-4.589,0.626-5.672,1.86
			c-1.208,1.377-1.017,3.132-1.015,3.15l0.013,0.185v4.925l-0.482,0.435c-0.169,0.152-0.258,0.345-0.258,0.556v2.957
			c0,0.255,0.133,0.492,0.355,0.637l0.498,0.322l0.133,0.577c0.632,2.757,2.279,4.809,2.369,4.919l0.007,0.009l0.335,0.405
			l0.001,3.23c0,1.521-0.83,2.92-2.166,3.648l-5.808,3.168c0.129,0.088,0.262,0.177,0.401,0.268
			c0.117,0.077,0.234,0.152,0.354,0.228c0.438,0.272,0.836,0.505,1.216,0.708c0.037,0.02,0.07,0.036,0.103,0.053l0.074,0.038
			c0.502,0.261,0.954,0.477,1.382,0.661L422.801,318.487z M445.095,316.211l-0.404-0.279c-0.24-0.166-0.459-0.298-0.669-0.403
			l-7.063-3.531c-0.848-0.424-1.375-1.275-1.375-2.223v-2.688l0.141-0.173c0.154-0.191,0.32-0.41,0.49-0.65
			c0.879-1.24,1.586-2.626,2.102-4.115l0.086-0.249l0.237-0.112c0.853-0.404,1.382-1.239,1.382-2.179v-2.958
			c0-0.571-0.209-1.127-0.588-1.568l-0.152-0.176l0.003-4.188c0.043-0.419,0.171-2.605-1.418-4.417
			c-1.413-1.613-3.744-2.431-6.929-2.431c-3.183,0-5.514,0.817-6.927,2.43c-1.591,1.814-1.461,3.998-1.419,4.418l0.003,0.062v4.125
			l-0.151,0.176c-0.38,0.442-0.589,0.999-0.589,1.569v2.958c0,0.726,0.324,1.407,0.89,1.87l0.158,0.13l0.051,0.199
			c0.64,2.506,1.943,4.407,2.474,5.107l0.126,0.167v2.625c0,0.91-0.495,1.746-1.294,2.183l-6.598,3.599
			c-0.181,0.099-0.365,0.216-0.563,0.356l-0.408,0.293l-0.374-0.336c-4.625-4.156-7.278-10.093-7.278-16.287
			c0-12.077,9.825-21.901,21.9-21.901c12.077,0,21.902,9.825,21.902,21.901c0,6.242-2.689,12.21-7.377,16.372L445.095,316.211z
			 M436.835,307.525v2.249c0,0.471,0.262,0.893,0.682,1.104l7.064,3.532c0.132,0.065,0.265,0.139,0.4,0.221
			c4.204-3.908,6.605-9.391,6.605-15.118c0-11.387-9.264-20.65-20.65-20.65c-11.386,0-20.649,9.263-20.649,20.65
			c0,5.679,2.366,11.128,6.508,15.029c0.089-0.055,0.178-0.106,0.266-0.154l6.596-3.599c0.396-0.217,0.644-0.632,0.644-1.084v-2.207
			c-0.62-0.849-1.848-2.74-2.511-5.192c-0.757-0.695-1.188-1.667-1.188-2.699v-2.958c0-0.789,0.261-1.561,0.74-2.196v-3.644
			c-0.054-0.582-0.167-3.176,1.726-5.335c1.661-1.896,4.309-2.856,7.868-2.856c3.561,0,6.209,0.961,7.869,2.857
			c1.893,2.158,1.779,4.753,1.727,5.335v3.644c0.479,0.635,0.739,1.406,0.739,2.197v2.958c0,1.337-0.704,2.534-1.857,3.186
			c-0.546,1.512-1.278,2.922-2.179,4.194C437.099,307.179,436.964,307.359,436.835,307.525z"/>
	</g>
	<g>
		<circle fill="#FBFBFB" cx="430.937" cy="299.512" r="20.963"/>
	</g>
</g>
<g>
	<defs>
		<ellipse id="SVGID_1_" cx="430.754" cy="298.226" rx="19.825" ry="20.784"/>
	</defs>
	<clipPath id="SVGID_2_">
		<use xlink:href="#SVGID_1_"  overflow="visible"/>
	</clipPath>
	<g clip-path="url(#SVGID_2_)">
		<path fill="#898889" d="M442.473,308.064h-2.344c-2.589,0-4.688-2.1-4.688-4.688v-1.506c1.036-1.231,1.78-2.69,2.243-4.232
			c0.048-0.26,0.297-0.388,0.465-0.567c0.897-0.897,1.074-2.412,0.4-3.49c-0.092-0.164-0.257-0.305-0.247-0.508
			c0-1.375,0.007-2.751-0.002-4.125c-0.037-1.658-0.511-3.383-1.673-4.611c-0.939-0.992-2.228-1.583-3.558-1.835
			c-1.681-0.32-3.438-0.304-5.103,0.119c-1.441,0.364-2.796,1.208-3.634,2.46c-0.742,1.088-1.067,2.41-1.122,3.712
			c-0.021,1.399-0.005,2.801-0.009,4.202c0.032,0.281-0.206,0.471-0.313,0.703c-0.634,1.15-0.355,2.717,0.664,3.554
			c0.258,0.178,0.307,0.503,0.4,0.784c0.444,1.387,1.181,2.667,2.112,3.782v1.557c0,2.588-2.099,4.688-4.688,4.688h-2.344
			c0,0-4.249,1.172-7.032,7.03v2.345c0,1.295,1.049,2.343,2.344,2.343h32.813c1.295,0,2.344-1.048,2.344-2.343v-2.345
			C446.721,309.236,442.473,308.064,442.473,308.064z"/>
	</g>
</g>
</svg>
