<?xml version="1.0" encoding="utf-8"?>
<!-- Generator: Adobe Illustrator 16.0.3, SVG Export Plug-In . SVG Version: 6.00 Build 0)  -->
<!DOCTYPE svg PUBLIC "-//W3C//DTD SVG 1.1//EN" "http://www.w3.org/Graphics/SVG/1.1/DTD/svg11.dtd">
<svg version="1.1" id="Layer_1" xmlns="http://www.w3.org/2000/svg" xmlns:xlink="http://www.w3.org/1999/xlink" x="0px" y="0px"
	 width="87.408px" height="80px" viewBox="-14.238 -26 87.408 80" enable-background="new -14.238 -26 87.408 80"
	 xml:space="preserve">
<g>
	<g>
		<defs>
			<path id="SVGID_1_" d="M29.466,48.479l-5.505-5.33C3.536,25.6-9.812,13.771-9.812-0.744c0-11.811,9.436-20.976,21.593-20.976
				c6.695,0,13.37,3.055,17.685,8.01c4.315-4.955,10.989-8.01,17.684-8.01c12.159,0,21.595,9.165,21.595,20.976
				c0,14.515-13.348,26.344-33.773,43.896L29.466,48.479z"/>
		</defs>
		<clipPath id="SVGID_2_">
			<use xlink:href="#SVGID_1_"  overflow="visible"/>
		</clipPath>
		<g clip-path="url(#SVGID_2_)">
			<rect x="-10.758" y="-22.111" fill="#FFFFFF" width="40.21" height="70.31"/>
			<rect x="29.454" y="-22.111" fill="#F0504D" width="39.405" height="70.31"/>
		</g>
	</g>
</g>
<g>
	<path fill="#FBC55A" d="M29.466,54l-7.446-7.248C0.967,28.558-14.238,15.403-14.238-1.403C-14.238-15.196-3.199-26,10.895-26
		c6.848,0,13.609,2.717,18.571,7.375C34.43-23.283,41.191-26,48.036-26C62.129-26,73.17-15.196,73.17-1.403
		c0,16.806-15.204,29.96-36.258,48.155L29.466,54z M10.895-21.122c-11.341,0-20.223,8.661-20.223,19.719
		c0,13.92,12.511,25.409,34.624,44.517l0.108,0.099l4.062,3.955l4.168-4.054C55.748,24.006,68.258,12.519,68.258-1.403
		c0-11.056-8.883-19.719-20.222-19.719c-6.241,0-12.643,2.916-16.708,7.612l-1.862,2.149l-1.86-2.149
		C23.539-18.204,17.134-21.122,10.895-21.122z"/>
</g>
</svg>
