<?xml version="1.0" encoding="utf-8"?>
<!-- Generator: Adobe Illustrator 16.0.3, SVG Export Plug-In . SVG Version: 6.00 Build 0)  -->
<!DOCTYPE svg PUBLIC "-//W3C//DTD SVG 1.1//EN" "http://www.w3.org/Graphics/SVG/1.1/DTD/svg11.dtd">
<svg version="1.1" id="Layer_1" xmlns="http://www.w3.org/2000/svg" xmlns:xlink="http://www.w3.org/1999/xlink" x="0px" y="0px"
	 width="105px" height="140px" viewBox="0 0 105 140" enable-background="new 0 0 105 140" xml:space="preserve">
<rect x="9.866" y="81.956" fill="#FFFFFF" width="85.851" height="51.64"/>
<path fill="#FFFFFF" d="M28.966,30.725c8.343,0,16.554,1.901,24.404,5.646c0.63,0.3,1.129,0.783,1.455,1.364
	c0.371-0.514,0.892-0.923,1.521-1.156c8.975-3.31,15.862-4.787,22.334-4.787c4.011,0,7.828,0.581,11.666,1.772
	c0.996,0.31,4.663,1.727,5.875,2.292c0.421,0.197,0.842,0.402,1.268,0.615C91.721,17.628,75.527,6.411,52.884,6.057
	C31.276,6.67,16.328,16.278,8.34,34.643c0.73-0.286,1.508-0.571,2.328-0.851c1.165-0.396,4.681-1.391,5.738-1.634
	C20.554,31.208,24.779,30.725,28.966,30.725z"/>
<path fill="#DADADA" d="M99.97,45.54c0.511,0.39,1.16,0.53,1.771,0.53c0.01,0,0.02,0,0.02,0c1.79,0,3.24-1.46,3.24-3.26
	c0-0.29-0.04-0.58-0.11-0.85c-1.87-11.59-7.06-21.55-15.04-28.83C80.57,4.65,68.16,0.24,52.98,0.02h-0.13
	C26.05,0.75,7.82,14.56,0.14,39.95c-0.4,1.31,0.07,2.72,1.15,3.55c1.09,0.82,2.58,0.87,3.72,0.12c0.02-0.01,6.68-3.5,11.1-4.79
	L40.12,75.4H6.33c-1.79,0-3.24,1.42-3.24,3.21v58.149c0,1.8,1.45,3.26,3.24,3.26h92.32c1.79,0,3.239-1.46,3.239-3.26V78.61
	c0-1.79-1.449-3.21-3.239-3.21H69.04L90.49,40.51C91.95,41.3,96.1,42.59,99.97,45.54z M9.06,34.46c-0.01,0.01-0.02,0.01-0.02,0.01
	C16.92,16.52,31.65,7.13,52.96,6.53c22.32,0.35,38.29,11.31,43.97,29.73c-17.3-10.03-38.04-1.48-42.22,0.23
	C29.7,24.29,9.83,34.07,9.06,34.46z M23.17,37.55c8.69-1.11,19.81,0.19,28.07,3.72l-0.3,34.13h-2.16L23.17,37.55z M95.42,81.87
	v51.64H9.57V81.87H95.42z M61.08,75.4h-2.76L58.22,41.6c9.53-3.28,18.78-4.07,25.391-2.99L61.08,75.4z"/>
<g>
	<defs>
		<path id="SVGID_1_" d="M51.899,127.108l-2.756-2.762c-10.222-9.084-16.897-15.217-16.897-22.727
			c0-6.121,4.72-10.868,10.803-10.868c3.351,0,6.69,1.583,8.851,4.145c2.162-2.562,5.497-4.145,8.85-4.145
			c6.085,0,10.806,4.747,10.806,10.868c0,7.51-6.677,13.643-16.904,22.727L51.899,127.108z M51.899,127.108"/>
	</defs>
	<use xlink:href="#SVGID_1_"  overflow="visible" fill="#FBC55A"/>
	<clipPath id="SVGID_2_">
		<use xlink:href="#SVGID_1_"  overflow="visible"/>
	</clipPath>
	<g clip-path="url(#SVGID_2_)">
		<rect x="31.771" y="90.55" fill="#FBC55A" width="20.122" height="36.413"/>
		<rect x="51.893" y="90.55" fill="#FBC55A" width="19.72" height="36.413"/>
	</g>
</g>
</svg>
