<?xml version="1.0" encoding="utf-8"?>
<!-- Generator: Adobe Illustrator 16.0.3, SVG Export Plug-In . SVG Version: 6.00 Build 0)  -->
<!DOCTYPE svg PUBLIC "-//W3C//DTD SVG 1.1//EN" "http://www.w3.org/Graphics/SVG/1.1/DTD/svg11.dtd">
<svg version="1.1" id="Layer_1" xmlns="http://www.w3.org/2000/svg" xmlns:xlink="http://www.w3.org/1999/xlink" x="0px" y="0px"
	 width="155px" height="125px" viewBox="0 0 155 125" enable-background="new 0 0 155 125" xml:space="preserve">
<g>
	<g>
		<g>
			<path fill="#B6E4FA" d="M78.152,56.629l-14.283-0.01c-3.016,0.007-5.964,1.564-7.6,4.355c-2.457,4.199-1.051,9.598,3.143,12.058
				c4.195,2.463,9.587,1.055,12.045-3.146l7.224-12.339C78.92,57.142,78.625,56.629,78.152,56.629L78.152,56.629z M78.152,56.629"/>
			<path fill="#72C1E9" d="M78.139,56.634l-14.283-0.011c2.892,8.236,14.81,0.933,14.81,0.933
				C78.904,57.148,78.613,56.635,78.139,56.634L78.139,56.634z M78.139,56.634"/>
		</g>
		<g>
			<g>
				<path fill="#FBC55A" d="M78.027,57.338L78.02,71.639c0.006,3.02,1.561,5.973,4.35,7.61c4.193,2.462,9.586,1.052,12.043-3.146
					c2.457-4.199,1.051-9.599-3.143-12.061l-12.322-7.229C78.541,56.572,78.029,56.866,78.027,57.338L78.027,57.338z M78.027,57.338
					"/>
				<path fill="#F89720" d="M78.025,57.338l-0.01,14.301c8.225-2.896,0.93-14.825,0.93-14.825
					C78.539,56.572,78.025,56.866,78.025,57.338L78.025,57.338z M78.025,57.338"/>
			</g>
			<g>
				<path fill="#76BE83" d="M78.93,56.771l0.008-14.301c-0.004-3.02-1.559-5.973-4.349-7.609c-4.191-2.462-9.584-1.052-12.043,3.146
					c-2.46,4.2-1.051,9.599,3.142,12.059l12.323,7.232C78.418,57.538,78.93,57.244,78.93,56.771L78.93,56.771z M78.93,56.771"/>
				<path fill="#259E49" d="M78.947,56.764l0.01-14.301c-8.223,2.896-0.928,14.828-0.928,14.828
					C78.436,57.53,78.947,57.235,78.947,56.764L78.947,56.764z M78.947,56.764"/>
			</g>
		</g>
		<path fill="#F0504D" d="M78.803,57.482l14.287,0.009c3.016-0.005,5.961-1.562,7.598-4.355c2.457-4.198,1.051-9.599-3.145-12.058
			c-4.191-2.462-9.586-1.053-12.043,3.145l-7.225,12.338C78.039,56.969,78.33,57.482,78.803,57.482L78.803,57.482z"/>
		<path fill="#BD2327" d="M78.779,57.479l14.283,0.01c-2.891-8.235-14.809-0.931-14.809-0.931
			C78.016,56.966,78.307,57.479,78.779,57.479L78.779,57.479z M78.779,57.479"/>
	</g>
	<path fill="#DBDBDB" d="M152.189,14.455L96.775,0.02h-1.148c-1.883,0-3.328,1.174-3.598,2.92c-0.473,3.01-2.113,5.492-5.012,7.596
		c-2.74,1.992-5.93,3.002-9.477,3.002c-3.61,0-6.734-0.98-9.554-3c-2.852-2.037-4.489-4.519-5.006-7.588
		c-0.299-1.724-1.778-2.93-3.598-2.93H58.07L2.659,14.455c-1.873,0.482-3.037,2.521-2.546,4.453l7.763,30.543
		c0.41,1.602,1.896,2.678,3.691,2.678h21.167v69.296c0,2.049,1.544,3.595,3.591,3.595h82.199c2.064,0,3.744-1.613,3.744-3.595
		V52.129h21.166c1.645,0,3.131-1.129,3.539-2.683l7.916-30.541C155.387,16.967,154.178,14.971,152.189,14.455z M140.617,44.858
		h-22.094c-1.945,0-3.59,1.683-3.59,3.676v69.222H39.913V48.534c0-2.062-1.575-3.676-3.588-3.676H14.382l-6.36-24.245L56.888,7.946
		l0.235,0.522c1.685,3.744,4.293,6.697,7.973,9.03c3.632,2.298,7.819,3.464,12.444,3.464c4.579,0,8.6-1.134,12.292-3.465
		c3.705-2.354,6.414-5.392,8.045-9.029l0.236-0.523l48.865,12.668L140.617,44.858z"/>
</g>
</svg>
