<?xml version="1.0" encoding="utf-8"?>
<!-- Generator: Adobe Illustrator 16.0.3, SVG Export Plug-In . SVG Version: 6.00 Build 0)  -->
<!DOCTYPE svg PUBLIC "-//W3C//DTD SVG 1.1//EN" "http://www.w3.org/Graphics/SVG/1.1/DTD/svg11.dtd">
<svg version="1.1" id="Layer_1" xmlns="http://www.w3.org/2000/svg" xmlns:xlink="http://www.w3.org/1999/xlink" x="0px" y="0px"
	 width="90px" height="97px" viewBox="0 0 90 97" enable-background="new 0 0 90 97" xml:space="preserve">
<g>
	<path fill="#76BE83" d="M40.211,8.282h9.814C50.025,8.282,45.827-1.643,40.211,8.282z"/>
	<path fill="#F0504D" d="M55.642,84.664H34.786C34.786,84.664,43.708,105.754,55.642,84.664z"/>
	<g>
		<path fill="#DBDBDB" d="M86.686,74.837c-8.092-6.993-15.578-16.864-15.578-41.521c0-10.742-6.57-19.972-15.9-23.885
			C54.18,4.033,50.094,0,45.219,0c-4.866,0-8.953,4.033-9.979,9.432c-9.338,3.923-15.909,13.152-15.909,23.885
			c0,24.674-7.478,34.537-15.579,41.53c-2.245,1.962-3.528,4.775-3.528,7.727c0,1.632,1.32,2.951,2.941,2.951h27.95
			C32.472,92.059,38.281,97,45.219,97c6.946,0,12.757-4.932,14.112-11.476h27.95c1.622,0,2.942-1.319,2.942-2.951
			C90.224,79.594,88.931,76.771,86.686,74.837z M45.219,4.94c2.025,0,3.812,1.173,4.902,2.97c-1.585-0.321-3.226-0.476-4.894-0.476
			c-1.686,0-3.326,0.164-4.92,0.476C41.416,6.113,43.203,4.94,45.219,4.94z M45.219,91.105c-3.666,0-6.799-2.327-8-5.581h16.01
			C52.019,88.778,48.894,91.105,45.219,91.105z M7.271,79.631c0.11-0.119,0.22-0.229,0.339-0.33
			c12.344-10.66,17.613-24.418,17.613-45.984c0-11.025,8.972-19.999,20.005-19.999c11.024,0,19.996,8.974,19.996,19.999
			c0,21.549,5.26,35.307,17.612,45.984c0.12,0.101,0.239,0.211,0.35,0.33H7.271z"/>
	</g>
	<circle fill="#FBC55A" stroke="#DBDBDB" stroke-width="4.3227" stroke-miterlimit="10" cx="69.412" cy="36.132" r="16.055"/>
	<g>
		<path fill="#50599E" d="M69,34.143c0.722,0,1.344-0.212,1.865-0.636s0.782-1.032,0.782-1.824c0-0.604-0.208-1.125-0.623-1.56
			c-0.416-0.436-0.978-0.653-1.684-0.653c-0.479,0-0.873,0.067-1.183,0.2c-0.31,0.134-0.555,0.31-0.735,0.53
			s-0.352,0.502-0.512,0.848c-0.161,0.345-0.309,0.671-0.441,0.977c-0.079,0.165-0.22,0.294-0.424,0.388s-0.439,0.142-0.706,0.142
			c-0.314,0-0.603-0.127-0.865-0.383c-0.263-0.255-0.395-0.594-0.395-1.018c0-0.408,0.124-0.838,0.371-1.289
			s0.608-0.881,1.083-1.289c0.475-0.408,1.064-0.735,1.771-0.983c0.707-0.247,1.495-0.371,2.366-0.371
			c0.761,0,1.455,0.104,2.083,0.312s1.173,0.508,1.636,0.9c0.463,0.393,0.812,0.848,1.048,1.365
			c0.235,0.518,0.353,1.076,0.353,1.672c0,0.785-0.171,1.458-0.512,2.019c-0.342,0.561-0.83,1.108-1.465,1.642
			c0.611,0.33,1.127,0.707,1.547,1.13c0.42,0.424,0.736,0.893,0.947,1.407c0.212,0.514,0.318,1.069,0.318,1.666
			c0,0.714-0.144,1.405-0.43,2.072s-0.708,1.262-1.266,1.784c-0.557,0.522-1.218,0.93-1.982,1.224
			c-0.766,0.294-1.61,0.441-2.536,0.441c-0.941,0-1.785-0.169-2.53-0.506c-0.746-0.337-1.359-0.759-1.842-1.265
			c-0.483-0.506-0.848-1.03-1.095-1.572s-0.371-0.989-0.371-1.342c0-0.455,0.147-0.822,0.441-1.101
			c0.294-0.278,0.661-0.418,1.101-0.418c0.22,0,0.432,0.065,0.636,0.194c0.203,0.129,0.337,0.285,0.399,0.465
			c0.408,1.091,0.846,1.901,1.312,2.431s1.124,0.795,1.972,0.795c0.486,0,0.955-0.12,1.406-0.359
			c0.451-0.239,0.824-0.594,1.118-1.065c0.294-0.471,0.441-1.017,0.441-1.636c0-0.918-0.251-1.638-0.754-2.16
			c-0.502-0.522-1.2-0.783-2.095-0.783c-0.157,0-0.399,0.016-0.729,0.047c-0.329,0.032-0.541,0.047-0.636,0.047
			c-0.432,0-0.765-0.108-1-0.324s-0.354-0.516-0.354-0.9c0-0.377,0.142-0.681,0.424-0.913s0.702-0.347,1.26-0.347H69z"/>
	</g>
</g>
</svg>
