<?xml version="1.0" encoding="utf-8"?>
<!-- Generator: Adobe Illustrator 16.0.3, SVG Export Plug-In . SVG Version: 6.00 Build 0)  -->
<!DOCTYPE svg PUBLIC "-//W3C//DTD SVG 1.1//EN" "http://www.w3.org/Graphics/SVG/1.1/DTD/svg11.dtd">
<svg version="1.1" id="Layer_2" xmlns="http://www.w3.org/2000/svg" xmlns:xlink="http://www.w3.org/1999/xlink" x="0px" y="0px"
	 width="52px" height="55px" viewBox="0 0 52 55" enable-background="new 0 0 52 55" xml:space="preserve">
<path fill="#72C1E9" stroke="#FFFFFF" stroke-width="0.4146" stroke-miterlimit="10" d="M41.519,10.836
	c1.09,0.372,1.56,0.729,1.56,1.294c0,0.595-0.573,0.922-1.41,0.922c-0.602,0-1.164-0.121-1.656-0.298
	c-0.209-0.073-0.438-0.056-0.633,0.05c-0.195,0.104-0.338,0.288-0.392,0.502l-0.015,0.057c-0.124,0.48,0.149,0.973,0.619,1.121
	c0.499,0.155,1.09,0.265,1.691,0.294v0.684c0,0.402,0.32,0.728,0.721,0.728c0.398,0,0.722-0.326,0.722-0.729v-0.786
	c1.699-0.299,2.624-1.428,2.624-2.752c0-1.337-0.705-2.155-2.46-2.779c-1.253-0.476-1.77-0.787-1.77-1.277
	c0-0.416,0.31-0.834,1.267-0.834c0.566,0,1.022,0.096,1.382,0.212c0.196,0.062,0.409,0.039,0.589-0.061
	c0.181-0.103,0.312-0.272,0.361-0.474l0.029-0.105c0.113-0.456-0.156-0.922-0.605-1.043c-0.369-0.098-0.809-0.171-1.342-0.195V4.785
	c0-0.401-0.324-0.728-0.723-0.728s-0.723,0.326-0.723,0.728v0.684c-1.578,0.313-2.488,1.337-2.488,2.647
	C38.867,9.558,39.941,10.3,41.519,10.836L41.519,10.836z M41.519,10.836"/>
<path fill="#72C1E9" d="M42.036,0c-5.493,0-9.962,4.51-9.962,10.053s4.469,10.053,9.962,10.053c5.494,0,9.964-4.51,9.964-10.053
	S47.53,0,42.036,0z M42.036,17.599c-4.128,0-7.485-3.385-7.485-7.546s3.357-7.546,7.485-7.546c4.129,0,7.487,3.385,7.487,7.546
	S46.165,17.599,42.036,17.599z"/>
<g>
	<path fill="#72C1E9" stroke="#FFFFFF" stroke-width="0.4146" stroke-miterlimit="10" d="M41.448,45.66
		c1.09,0.372,1.56,0.729,1.56,1.294c0,0.595-0.573,0.922-1.41,0.922c-0.602,0-1.164-0.121-1.656-0.298
		c-0.209-0.073-0.438-0.056-0.633,0.05c-0.195,0.104-0.338,0.288-0.392,0.502l-0.015,0.057c-0.124,0.48,0.149,0.973,0.619,1.121
		c0.499,0.155,1.09,0.265,1.691,0.294v0.684c0,0.402,0.32,0.728,0.721,0.728c0.398,0,0.722-0.326,0.722-0.729v-0.786
		c1.699-0.299,2.624-1.428,2.624-2.752c0-1.337-0.705-2.155-2.46-2.779c-1.253-0.476-1.77-0.787-1.77-1.277
		c0-0.416,0.31-0.834,1.267-0.834c0.566,0,1.022,0.096,1.382,0.212c0.196,0.062,0.409,0.039,0.589-0.061
		c0.181-0.103,0.312-0.272,0.361-0.474l0.029-0.105c0.113-0.456-0.156-0.922-0.605-1.043c-0.369-0.098-0.809-0.171-1.342-0.195
		v-0.579c0-0.401-0.324-0.728-0.723-0.728s-0.723,0.326-0.723,0.728v0.684c-1.578,0.313-2.488,1.337-2.488,2.647
		C38.797,44.382,39.871,45.124,41.448,45.66L41.448,45.66z M41.448,45.66"/>
	<path fill="#72C1E9" d="M42.036,34.895c-5.493,0-9.962,4.51-9.962,10.053S36.543,55,42.036,55C47.53,55,52,50.49,52,44.947
		S47.53,34.895,42.036,34.895z M42.036,52.493c-4.128,0-7.485-3.386-7.485-7.546s3.357-7.546,7.485-7.546
		c4.129,0,7.487,3.386,7.487,7.546S46.165,52.493,42.036,52.493z"/>
</g>
<g>
	<path fill="#72C1E9" stroke="#FFFFFF" stroke-width="0.3579" stroke-miterlimit="10" d="M8.092,28.324
		c0.941,0.322,1.346,0.631,1.346,1.118c0,0.513-0.495,0.796-1.217,0.796c-0.519,0-1.005-0.104-1.43-0.258
		c-0.18-0.062-0.377-0.048-0.546,0.044c-0.168,0.089-0.292,0.248-0.338,0.433l-0.013,0.049c-0.107,0.415,0.129,0.84,0.534,0.968
		c0.431,0.134,0.941,0.229,1.46,0.254v0.59c0,0.347,0.276,0.628,0.622,0.628c0.344,0,0.623-0.281,0.623-0.63v-0.678
		c1.467-0.259,2.265-1.232,2.265-2.376c0-1.154-0.609-1.861-2.124-2.4c-1.082-0.411-1.528-0.679-1.528-1.103
		c0-0.359,0.268-0.72,1.094-0.72c0.489,0,0.883,0.083,1.193,0.183c0.169,0.054,0.354,0.034,0.508-0.052
		c0.156-0.088,0.27-0.235,0.312-0.409l0.026-0.091c0.098-0.394-0.135-0.796-0.523-0.9c-0.319-0.084-0.698-0.147-1.158-0.168v-0.5
		c0-0.346-0.28-0.628-0.624-0.628c-0.344,0-0.624,0.282-0.624,0.628v0.591c-1.362,0.27-2.148,1.154-2.148,2.285
		C5.803,27.221,6.731,27.861,8.092,28.324L8.092,28.324z M8.092,28.324"/>
	<path fill="#72C1E9" d="M8.6,19.031c-4.742,0-8.6,3.893-8.6,8.678s3.858,8.678,8.6,8.678c4.743,0,8.602-3.893,8.602-8.678
		S13.342,19.031,8.6,19.031z M8.6,34.224c-3.563,0-6.461-2.923-6.461-6.515c0-3.591,2.898-6.514,6.461-6.514
		c3.564,0,6.463,2.923,6.463,6.514C15.063,31.301,12.164,34.224,8.6,34.224z"/>
</g>
<path fill="#72C1E9" d="M23.008,14.583l6.147-4.358c0.163-0.113,0.255-0.3,0.251-0.502c-0.007-0.188-0.113-0.374-0.277-0.476
	l-6.493-4.032c0.842,1.965,1.314,3.296,1.314,3.296l0.237,0.668l-0.706,0.067c-1.913,0.183-3.716,0.926-5.215,2.149
	c-2.035,1.66-3.305,4.017-3.577,6.637c-0.044,0.439,0.271,0.835,0.704,0.881l0.084,0.004c0.403,0,0.741-0.309,0.786-0.719
	c0.228-2.191,1.291-4.165,2.991-5.553c1.138-0.927,2.528-1.528,4.019-1.738l0.833-0.118l-0.223,0.812
	C23.88,11.619,23.402,13.356,23.008,14.583z"/>
<path fill="#72C1E9" d="M23.008,40.548l6.147,4.358c0.163,0.113,0.255,0.299,0.251,0.502c-0.007,0.188-0.113,0.373-0.277,0.477
	l-6.493,4.031c0.842-1.965,1.314-3.296,1.314-3.296l0.237-0.668l-0.706-0.067c-1.913-0.183-3.716-0.926-5.215-2.149
	c-2.035-1.659-3.305-4.017-3.577-6.637c-0.044-0.439,0.271-0.835,0.704-0.882l0.084-0.004c0.403,0,0.741,0.31,0.786,0.72
	c0.228,2.191,1.291,4.165,2.991,5.553c1.138,0.927,2.528,1.528,4.019,1.738l0.833,0.118l-0.223-0.812
	C23.88,43.513,23.402,41.775,23.008,40.548z"/>
</svg>
