<?xml version="1.0" encoding="utf-8"?>
<!-- Generator: Adobe Illustrator 16.0.3, SVG Export Plug-In . SVG Version: 6.00 Build 0)  -->
<!DOCTYPE svg PUBLIC "-//W3C//DTD SVG 1.1//EN" "http://www.w3.org/Graphics/SVG/1.1/DTD/svg11.dtd">
<svg version="1.1" id="Layer_1" xmlns="http://www.w3.org/2000/svg" xmlns:xlink="http://www.w3.org/1999/xlink" x="0px" y="0px"
	 width="44px" height="48px" viewBox="0 0 44 48" enable-background="new 0 0 44 48" xml:space="preserve">
<g>
	<path fill="#76BE83" d="M29.003,18.014c0,0.516,0.421,0.936,0.94,0.936s0.939-0.42,0.939-0.936c0-1.785-0.979-3.44-2.756-4.658
		c-0.941-0.646-2.051-1.127-3.258-1.423V10.52c0-0.518-0.421-0.938-0.939-0.938c-0.521,0-0.941,0.42-0.941,0.938v1.107
		c-0.351-0.029-0.706-0.046-1.065-0.046c-0.358,0-0.713,0.017-1.065,0.046V10.52c0-0.518-0.42-0.938-0.939-0.938
		c-0.519,0-0.939,0.42-0.939,0.938v1.413c-1.207,0.296-2.317,0.777-3.258,1.423c-1.777,1.218-2.756,2.873-2.756,4.658
		c0,1.786,0.979,3.438,2.756,4.657c0.941,0.645,2.051,1.126,3.258,1.423v9.039c-2.415-0.734-4.134-2.328-4.134-4.129
		c0-0.518-0.421-0.938-0.94-0.938c-0.519,0-0.939,0.42-0.939,0.938c0,1.786,0.979,3.439,2.756,4.658
		c0.941,0.644,2.051,1.126,3.258,1.424v1.411c0,0.519,0.421,0.938,0.939,0.938c0.52,0,0.939-0.419,0.939-0.938V35.39
		c0.353,0.03,0.708,0.047,1.065,0.047c0.359,0,0.714-0.017,1.065-0.047v1.107c0,0.519,0.42,0.938,0.941,0.938
		c0.519,0,0.939-0.419,0.939-0.938v-1.411c1.207-0.298,2.316-0.78,3.258-1.424c1.777-1.219,2.756-2.872,2.756-4.658
		c0-1.785-0.979-3.438-2.756-4.658c-0.941-0.646-2.051-1.125-3.258-1.424v-9.037C27.283,14.619,29.003,16.215,29.003,18.014
		L29.003,18.014z M14.846,18.014c0-1.799,1.719-3.395,4.134-4.129v8.258C16.564,21.408,14.846,19.812,14.846,18.014L14.846,18.014z
		 M21.924,33.562c-0.36,0-0.716-0.019-1.065-0.053v-9.11c0.353,0.029,0.708,0.046,1.065,0.046c0.361,0,0.718,0.02,1.065,0.054v9.011
		C22.642,33.544,22.285,33.562,21.924,33.562L21.924,33.562z M29.003,29.004c0,1.801-1.72,3.395-4.134,4.129v-8.258
		C27.283,25.609,29.003,27.205,29.003,29.004L29.003,29.004z M22.989,22.618c-0.351-0.029-0.706-0.046-1.065-0.046
		c-0.36,0-0.716-0.018-1.065-0.055v-9.009c0.35-0.035,0.706-0.054,1.065-0.054c0.361,0,0.718,0.019,1.065,0.054V22.618z
		 M22.989,22.618"/>
	<path fill="#76BE83" d="M42.719,5.771c-0.191,0.004-0.391,0.004-0.595,0.004c-4.577,0-13.213-0.726-19.62-5.584
		c-0.335-0.256-0.801-0.256-1.137,0C14.962,5.05,6.327,5.775,1.749,5.775c-0.205,0-0.403,0-0.596-0.004H1.141
		c-0.473,0-0.873,0.353-0.933,0.82C-0.125,9.227-0.62,16.266,1.961,24.66c3.24,10.536,9.819,18.355,19.552,23.238
		C21.647,47.967,21.792,48,21.936,48s0.29-0.033,0.423-0.102c9.732-4.883,16.312-12.702,19.552-23.238
		c2.581-8.395,2.086-15.434,1.753-18.068C43.604,6.118,43.201,5.764,42.719,5.771L42.719,5.771z M40.113,24.11
		c-3.035,9.877-9.15,17.243-18.177,21.901C12.909,41.354,6.795,33.987,3.759,24.11C1.492,16.743,1.729,10.347,1.983,7.647
		c2.34-0.011,5.815-0.211,9.497-1.053c4.051-0.926,7.564-2.437,10.456-4.495c2.892,2.059,6.406,3.569,10.457,4.495
		c3.682,0.842,7.157,1.042,9.496,1.053C42.143,10.347,42.38,16.743,40.113,24.11L40.113,24.11z M40.113,24.11"/>
</g>
</svg>
