<?xml version="1.0" encoding="utf-8"?>
<!-- Generator: Adobe Illustrator 16.0.3, SVG Export Plug-In . SVG Version: 6.00 Build 0)  -->
<!DOCTYPE svg PUBLIC "-//W3C//DTD SVG 1.1//EN" "http://www.w3.org/Graphics/SVG/1.1/DTD/svg11.dtd">
<svg version="1.1" id="Layer_1" xmlns="http://www.w3.org/2000/svg" xmlns:xlink="http://www.w3.org/1999/xlink" x="0px" y="0px"
	 width="39px" height="52px" viewBox="0 0 39 52" enable-background="new 0 0 39 52" xml:space="preserve">
<g>
	<path fill="#F0504D" d="M1.764,44.565c1.549-2.729,3.707-5.087,6.274-6.857l2.443-0.958l3.016,1.183l3.016-1.183l3.015,1.183
		l3.017-1.183l3.017,1.183l3.015-1.183l2.395,0.939c2.585,1.773,4.759,4.142,6.318,6.88c-5.116,3.846-11.282,5.924-17.761,5.924
		C13.048,50.493,6.882,48.414,1.764,44.565L1.764,44.565z M5.197,17.289L4.371,1.508h30.315l-0.825,15.781
		c-0.141,2.686-0.192,5.412-0.152,8.104l0.15,10.035l-2.268,0.89l-3.016-1.183l-3.017,1.183l-3.015-1.183l-3.017,1.183l-3.015-1.183
		l-3.016,1.183l-3.016-1.183l-3.016,1.183L5.2,35.428l0.148-10.035C5.388,22.701,5.337,19.975,5.197,17.289L5.197,17.289z
		 M38.466,43.638c-1.401-2.411-3.248-4.547-5.42-6.275l2.311-0.905l-0.165-11.088c-0.04-2.656,0.011-5.348,0.149-8L36.25,0H2.808
		l0.909,17.369c0.139,2.652,0.19,5.344,0.15,8L3.702,36.457l2.296,0.9c-2.169,1.728-4.013,3.863-5.412,6.275L0,45.09
		C5.537,49.568,12.35,52,19.528,52c7.154,0,13.945-2.414,19.472-6.862L38.466,43.638z"/>
	<path fill="#F0504D" d="M15.184,17.549c1.213,0,2.2-1.003,2.2-2.239c0-1.231-0.987-2.236-2.2-2.236s-2.201,1.005-2.201,2.236
		C12.983,16.546,13.971,17.549,15.184,17.549L15.184,17.549z M15.184,14.58c0.396,0,0.718,0.327,0.718,0.729
		c0,0.404-0.322,0.732-0.718,0.732c-0.397,0-0.718-0.328-0.718-0.732C14.466,14.907,14.787,14.58,15.184,14.58L15.184,14.58z
		 M15.184,14.58"/>
	<path fill="#F0504D" d="M22.696,17.549c1.213,0,2.199-1.003,2.199-2.239c0-1.231-0.986-2.236-2.199-2.236s-2.199,1.005-2.199,2.236
		C20.497,16.546,21.483,17.549,22.696,17.549L22.696,17.549z M22.696,14.58c0.396,0,0.719,0.327,0.719,0.729
		c0,0.404-0.323,0.732-0.719,0.732c-0.396,0-0.718-0.328-0.718-0.732C21.979,14.907,22.3,14.58,22.696,14.58L22.696,14.58z
		 M22.696,14.58"/>
</g>
</svg>
