<?xml version="1.0" encoding="utf-8"?>
<!-- Generator: Adobe Illustrator 16.0.3, SVG Export Plug-In . SVG Version: 6.00 Build 0)  -->
<!DOCTYPE svg PUBLIC "-//W3C//DTD SVG 1.1//EN" "http://www.w3.org/Graphics/SVG/1.1/DTD/svg11.dtd">
<svg version="1.1" id="Layer_1" xmlns="http://www.w3.org/2000/svg" xmlns:xlink="http://www.w3.org/1999/xlink" x="0px" y="0px"
	 width="191px" height="34px" viewBox="0 0 191 34" enable-background="new 0 0 191 34" xml:space="preserve">
<g>
	<g>
		<g>
			<polygon fill="#50599E" points="45.98,23.934 50.333,23.934 51.855,13.127 55.927,13.127 56.366,9.993 43.846,9.993 
				43.406,13.127 47.503,13.127 			"/>
			<path fill="#50599E" d="M62.597,16.059c0.428,0,0.832,0.182,1.108,0.503c0.292,0.338,0.419,0.802,0.35,1.272l-0.537,3.734
				c-0.079,0.535-0.069,1.293,0.43,1.871c0.444,0.514,1.206,0.787,2.207,0.787c0.882,0,1.89-0.117,2.6-0.295l0.307-2.135
				c-0.458-0.031-0.727-0.229-0.873-0.395c-0.244-0.277-0.335-0.66-0.272-1.137l0.561-3.879c0.14-0.985-0.072-1.864-0.601-2.473
				c-0.537-0.619-1.364-0.945-2.394-0.945c-1.11,0-2.218,0.447-3.039,1.226l-1.228,1.164l0.946-5.337H57.92l-2.161,13.913h4.243
				l0.889-6.271C61.026,16.761,61.774,16.059,62.597,16.059z"/>
			<path fill="#50599E" d="M76.166,19.76c2.258,0,4.949-0.584,4.949-3.379c0-2.104-1.616-3.413-4.218-3.413
				c-3.808,0-6.681,2.795-6.681,6.5c0,3.156,1.856,4.758,5.517,4.758c1.543,0,3.002-0.332,3.927-0.602L79.543,21.4
				c-0.822,0.191-1.737,0.295-2.647,0.295c-1.381,0-2.287-0.385-2.692-1.143l-0.527-0.982l1.111,0.117
				C75.254,19.736,75.718,19.76,76.166,19.76z M74.287,17.238c0.354-1.343,1.262-2.142,2.429-2.142c0.785,0,1.354,0.521,1.354,1.241
				c0,0.644-0.362,1.15-1.022,1.426c-0.402,0.17-0.917,0.255-1.528,0.255h0c-0.31,0-0.568-0.023-0.729-0.042l-0.676-0.079
				L74.287,17.238z"/>
			<path fill="#50599E" d="M92.403,9.701c-5.588,0-9.344,3.342-9.344,8.314c0,4.006,2.437,6.211,6.86,6.211
				c1.816,0,3.812-0.367,5.3-0.965l0.911-6.534h-3.616l-0.595,4.227l-0.44,0.062c-0.167,0.023-0.355,0.051-0.62,0.051
				c-1.533,0-3.323-0.969-3.323-3.702c0-1.355,0.497-4.507,5.09-4.507c1.129,0,2.064,0.191,2.769,0.39l0.958-3.018
				C95.361,9.97,94.013,9.701,92.403,9.701z"/>
			<path fill="#50599E" d="M104.31,12.968c-3.566,0-7.174,2.209-7.174,6.434c0,2.93,2.132,4.824,5.427,4.824
				c3.456,0,7.129-2.248,7.129-6.413C109.691,14.466,106.988,12.968,104.31,12.968z M103.122,21.27
				c-1.126,0-1.911-0.961-1.911-2.338c0-1.631,1.143-3.007,2.494-3.007c1.127,0,1.912,0.961,1.912,2.337
				C105.617,19.893,104.475,21.27,103.122,21.27z"/>
			<path fill="#50599E" d="M117.736,12.968c-3.564,0-7.174,2.209-7.174,6.434c0,2.93,2.133,4.824,5.429,4.824
				c3.454,0,7.126-2.248,7.126-6.413C123.117,14.466,120.416,12.968,117.736,12.968z M116.551,21.27
				c-1.126,0-1.912-0.961-1.912-2.338c0-1.631,1.142-3.007,2.494-3.007c1.125,0,1.912,0.961,1.912,2.337
				C119.045,19.893,117.902,21.27,116.551,21.27z"/>
			<path fill="#50599E" d="M136.057,20.223l1.631-10.202h-4.219l-0.936,5.35l-0.865-1.191c-0.599-0.826-1.342-1.211-2.34-1.211
				c-2.968,0-5.293,2.906-5.293,6.614c0,2.311,1.043,4.645,3.369,4.645c1.355,0,2.398-0.51,3.377-1.65l0.686-0.801l0.326,1.002
				c0.3,0.92,1.213,1.449,2.502,1.449c0.883,0,1.892-0.117,2.602-0.295l0.309-2.141c-0.455-0.031-0.721-0.229-0.869-0.396
				C136.088,21.113,135.994,20.719,136.057,20.223z M130.066,21.158c-1.125,0-1.912-0.934-1.912-2.271
				c0-1.596,1.109-2.896,2.471-2.896c1.108,0,1.913,0.955,1.913,2.271C132.538,19.832,131.405,21.158,130.066,21.158z"/>
			<path fill="#50599E" d="M146.111,9.701c-1.934,0-3.52,0.097-5.069,0.311l-1.957,13.972c1.111,0.117,2.585,0.242,4.14,0.242
				c8.721,0,10.551-4.486,10.551-8.248C153.775,12.048,150.91,9.701,146.111,9.701z M145.148,21.137c-0.225,0-0.506,0-0.723-0.029
				l-0.597-0.074l1.177-8.293l0.448-0.056c0.216-0.027,0.523-0.027,0.745-0.027c1.982,0,3.166,1.283,3.166,3.434
				C149.365,19.156,147.711,21.137,145.148,21.137z"/>
			<path fill="#50599E" d="M166.859,21.395c-0.248-0.281-0.342-0.676-0.279-1.172l0.981-6.963h-4.216l-0.286,2.116l-0.868-1.196
				c-0.6-0.826-1.342-1.211-2.34-1.211c-2.918,0-5.293,2.966-5.293,6.614c0,2.311,1.041,4.645,3.368,4.645
				c1.358,0,2.429-0.523,3.372-1.646l0.687-0.816l0.331,1.014c0.301,0.92,1.212,1.449,2.502,1.449c0.883,0,1.891-0.117,2.602-0.295
				l0.307-2.141C167.273,21.76,167.006,21.562,166.859,21.395z M160.589,21.158c-1.126,0-1.911-0.934-1.911-2.271
				c0-1.596,1.108-2.896,2.472-2.896c1.107,0,1.911,0.955,1.911,2.271C163.061,19.832,161.929,21.158,160.589,21.158z"/>
			<path fill="#50599E" d="M169.484,15.991h1.164l-0.744,5.218c-0.145,0.994-0.01,1.736,0.399,2.211
				c0.464,0.535,1.335,0.807,2.593,0.807c1.26,0,2.43-0.264,3.178-0.529l0.291-2.098c-0.082,0.004-0.172,0.006-0.268,0.006
				c-0.591,0-1.09-0.201-1.406-0.564c-0.213-0.244-0.444-0.684-0.345-1.387l0.521-3.663h1.971l0.389-2.731h-1.965l0.38-2.753h-4.22
				l-0.381,2.753h-1.166L169.484,15.991z"/>
			<path fill="#50599E" d="M190.134,21.395c-0.249-0.281-0.344-0.676-0.28-1.172l0.98-6.963h-4.216l-0.286,2.116l-0.867-1.196
				c-0.6-0.826-1.344-1.211-2.341-1.211c-2.918,0-5.293,2.966-5.293,6.614c0,2.311,1.042,4.645,3.368,4.645
				c1.359,0,2.43-0.523,3.373-1.646l0.687-0.816l0.33,1.014c0.301,0.92,1.213,1.449,2.503,1.449c0.883,0,1.891-0.117,2.602-0.295
				L191,21.791C190.547,21.76,190.279,21.562,190.134,21.395z M183.862,21.158c-1.126,0-1.911-0.934-1.911-2.271
				c0-1.596,1.107-2.896,2.472-2.896c1.106,0,1.911,0.955,1.911,2.271C186.334,19.832,185.201,21.158,183.862,21.158z"/>
		</g>
	</g>
	<g>
		<g>
			<g>
				<path fill="#FBC55A" d="M16.667,17.169l-0.006,10.364c0.004,2.189,1.132,4.328,3.157,5.516c3.042,1.783,6.956,0.762,8.74-2.279
					c1.783-3.045,0.762-6.957-2.281-8.74l-8.943-5.242C17.039,16.613,16.668,16.825,16.667,17.169L16.667,17.169z M16.667,17.169"/>
				<path fill="#F89720" d="M16.666,17.169l-0.007,10.364c5.968-2.1,0.674-10.746,0.674-10.746
					C17.037,16.613,16.666,16.825,16.666,17.169L16.666,17.169z M16.666,17.169"/>
			</g>
			<g>
				<path fill="#76BE83" d="M17.321,16.758l0.006-10.366c-0.004-2.188-1.132-4.328-3.156-5.515c-3.043-1.784-6.957-0.762-8.74,2.281
					c-1.784,3.043-0.763,6.956,2.281,8.74l8.941,5.242C16.95,17.313,17.321,17.1,17.321,16.758L17.321,16.758z M17.321,16.758"/>
				<path fill="#259E49" d="M17.334,16.752l0.007-10.365c-5.969,2.099-0.673,10.747-0.673,10.747
					C16.962,17.308,17.334,17.094,17.334,16.752L17.334,16.752z M17.334,16.752"/>
			</g>
		</g>
		<path fill="#B6E4FA" d="M16.758,16.654L6.393,16.646c-2.188,0.005-4.327,1.134-5.515,3.156c-1.783,3.045-0.763,6.957,2.281,8.74
			c3.044,1.785,6.957,0.764,8.74-2.279l5.242-8.943C17.314,17.025,17.101,16.654,16.758,16.654L16.758,16.654z M16.758,16.654"/>
		<path fill="#72C1E9" d="M16.748,16.658L6.382,16.65c2.1,5.969,10.748,0.675,10.748,0.675C17.303,17.03,17.09,16.659,16.748,16.658
			L16.748,16.658z M16.748,16.658"/>
		<path fill="#F0504D" d="M17.229,17.273l10.368,0.006c2.187-0.004,4.327-1.132,5.514-3.158c1.783-3.042,0.762-6.956-2.281-8.739
			c-3.043-1.784-6.957-0.763-8.741,2.28l-5.242,8.941C16.675,16.901,16.887,17.273,17.229,17.273L17.229,17.273z"/>
		<path fill="#BD2327" d="M17.212,17.271l10.366,0.007c-2.099-5.968-10.748-0.674-10.748-0.674
			C16.658,16.899,16.87,17.271,17.212,17.271L17.212,17.271z M17.212,17.271"/>
	</g>
</g>
</svg>
