<?xml version="1.0" encoding="utf-8"?>
<!-- Generator: Adobe Illustrator 16.0.3, SVG Export Plug-In . SVG Version: 6.00 Build 0)  -->
<!DOCTYPE svg PUBLIC "-//W3C//DTD SVG 1.1//EN" "http://www.w3.org/Graphics/SVG/1.1/DTD/svg11.dtd">
<svg version="1.1" id="Layer_1" xmlns="http://www.w3.org/2000/svg" xmlns:xlink="http://www.w3.org/1999/xlink" x="0px" y="0px"
	 width="7.449px" height="13.769px" viewBox="0 0 7.449 13.769" enable-background="new 0 0 7.449 13.769" xml:space="preserve">
<path fill="#269D49" d="M7.168,0.003L5.382,0C3.375,0,2.077,1.331,2.077,3.39v1.562H0.281C0.126,4.951,0,5.076,0,5.232v2.262
	c0,0.155,0.126,0.281,0.281,0.281h1.796v5.713c0,0.155,0.126,0.28,0.281,0.28h2.343c0.155,0,0.281-0.125,0.281-0.28V7.775h2.101
	c0.154,0,0.281-0.126,0.281-0.281l0.001-2.262c0-0.073-0.03-0.146-0.083-0.198C7.23,4.98,7.16,4.951,7.085,4.951H4.982V3.626
	c0-0.637,0.152-0.959,0.982-0.959h1.203c0.157,0,0.281-0.127,0.281-0.28V0.284C7.449,0.128,7.325,0.003,7.168,0.003L7.168,0.003z
	 M7.168,0.003"/>
</svg>
