<?xml version="1.0" encoding="utf-8"?>
<!-- Generator: Adobe Illustrator 16.0.3, SVG Export Plug-In . SVG Version: 6.00 Build 0)  -->
<!DOCTYPE svg PUBLIC "-//W3C//DTD SVG 1.1//EN" "http://www.w3.org/Graphics/SVG/1.1/DTD/svg11.dtd">
<svg version="1.1" id="Layer_1" xmlns="http://www.w3.org/2000/svg" xmlns:xlink="http://www.w3.org/1999/xlink" x="0px" y="0px"
	 width="12.646px" height="10.272px" viewBox="0 0 12.646 10.272" enable-background="new 0 0 12.646 10.272" xml:space="preserve">
<g>
	<g>
		<path fill="#269D49" d="M12.646,1.215c-0.462,0.206-0.964,0.349-1.489,0.411c0.537-0.321,0.946-0.832,1.143-1.438
			c-0.502,0.297-1.057,0.514-1.652,0.629C10.176,0.315,9.501,0,8.756,0C7.324,0,6.162,1.161,6.162,2.594
			c0,0.204,0.024,0.4,0.066,0.59C4.071,3.074,2.161,2.045,0.88,0.474C0.656,0.857,0.528,1.305,0.528,1.779
			c0,0.898,0.46,1.694,1.155,2.156C1.259,3.924,0.861,3.806,0.51,3.611v0.032c0,1.256,0.894,2.307,2.08,2.545
			C2.374,6.247,2.143,6.277,1.907,6.277c-0.166,0-0.328-0.014-0.49-0.047c0.331,1.03,1.288,1.778,2.423,1.802
			C2.953,8.729,1.833,9.141,0.619,9.141c-0.21,0-0.414-0.013-0.619-0.036c1.151,0.738,2.513,1.168,3.979,1.168
			c4.77,0,7.377-3.953,7.377-7.378L11.35,2.559C11.859,2.19,12.299,1.737,12.646,1.215L12.646,1.215z M12.646,1.215"/>
	</g>
</g>
</svg>
