<?xml version="1.0" encoding="utf-8"?>
<!-- Generator: Adobe Illustrator 16.0.3, SVG Export Plug-In . SVG Version: 6.00 Build 0)  -->
<!DOCTYPE svg PUBLIC "-//W3C//DTD SVG 1.1//EN" "http://www.w3.org/Graphics/SVG/1.1/DTD/svg11.dtd">
<svg version="1.1" id="Layer_1" xmlns="http://www.w3.org/2000/svg" xmlns:xlink="http://www.w3.org/1999/xlink" x="0px" y="0px"
	 width="12.425px" height="12.779px" viewBox="0 0 12.425 12.779" enable-background="new 0 0 12.425 12.779" xml:space="preserve">
<g>
	<g>
		<path fill="#269D49" d="M8.088,0H5.039C3.681,0,2.741,0.297,1.895,0.998C1.23,1.572,0.832,2.405,0.832,3.229
			c0,1.27,0.968,2.618,2.762,2.618c0.172,0,0.362-0.019,0.531-0.033L4.1,5.874c-0.073,0.171-0.14,0.334-0.14,0.588
			c0,0.495,0.239,0.8,0.469,1.096l0.03,0.036L4.406,7.598C3.666,7.649,2.288,7.744,1.281,8.362C0.092,9.07,0,10.097,0,10.396
			c0,1.187,1.105,2.384,3.576,2.384c2.872,0,4.374-1.584,4.374-3.149c0-1.158-0.678-1.729-1.399-2.336L5.944,6.821
			c-0.188-0.156-0.422-0.35-0.422-0.707c0-0.354,0.234-0.586,0.44-0.791l0.021-0.022c0.656-0.517,1.401-1.104,1.401-2.37
			c0-1.274-0.797-1.935-1.18-2.25h1.011c0.013,0,0.025-0.004,0.035-0.011l0.871-0.547C8.147,0.107,8.159,0.076,8.15,0.049
			C8.143,0.021,8.116,0,8.088,0L8.088,0z M4.39,12.08c-1.75,0-2.926-0.816-2.926-2.033c0-0.795,0.481-1.374,1.429-1.716
			c0.757-0.257,1.738-0.269,1.748-0.269c0.165,0,0.249,0,0.381,0.017c1.226,0.871,1.814,1.329,1.814,2.202
			C6.836,11.391,5.9,12.08,4.39,12.08L4.39,12.08z M4.375,5.38c-1.469,0-2.079-1.931-2.079-2.967c0-0.525,0.119-0.928,0.365-1.232
			c0.267-0.334,0.725-0.552,1.165-0.552c1.349,0,2.095,1.815,2.095,3.069c0,0.196,0,0.798-0.414,1.214
			C5.226,5.192,4.771,5.38,4.375,5.38L4.375,5.38z M4.375,5.38"/>
		<path fill="#269D49" d="M12.36,5.969h-1.607v-1.6c0-0.037-0.029-0.066-0.066-0.066h-0.69c-0.036,0-0.065,0.029-0.065,0.066v1.6
			H8.333c-0.037,0-0.067,0.029-0.067,0.065v0.701c0,0.035,0.03,0.066,0.067,0.066h1.598v1.609c0,0.036,0.029,0.065,0.065,0.065h0.69
			c0.037,0,0.066-0.029,0.066-0.065V6.802h1.607c0.035,0,0.064-0.031,0.064-0.066V6.034C12.425,5.998,12.396,5.969,12.36,5.969
			L12.36,5.969z M12.36,5.969"/>
	</g>
</g>
</svg>
