<?xml version="1.0" encoding="utf-8"?>
<!-- Generator: Adobe Illustrator 16.0.3, SVG Export Plug-In . SVG Version: 6.00 Build 0)  -->
<!DOCTYPE svg PUBLIC "-//W3C//DTD SVG 1.1//EN" "http://www.w3.org/Graphics/SVG/1.1/DTD/svg11.dtd">
<svg version="1.1" id="Layer_1" xmlns="http://www.w3.org/2000/svg" xmlns:xlink="http://www.w3.org/1999/xlink" x="0px" y="0px"
	 width="13.197px" height="13.77px" viewBox="0 0 13.197 13.77" enable-background="new 0 0 13.197 13.77" xml:space="preserve">
<g id="Symbols">
	<g id="ico-instagram">
		<path id="Fill-4" fill="#269D49" d="M13.229,11.699c0,1.073-0.823,1.945-1.844,1.945H1.844C0.826,13.644,0,12.772,0,11.699V1.944
			C0,0.871,0.826,0,1.844,0h9.542c1.021,0,1.844,0.871,1.844,1.944V11.699z"/>
		<path id="Fill-6" fill="#FFFFFF" d="M9.274,3.782V1.978c0,0,0.033-0.376,0.375-0.376h1.837c0,0,0.342,0.038,0.342,0.342V3.85
			c0,0-0.07,0.287-0.291,0.287H9.614C9.614,4.137,9.274,4.122,9.274,3.782"/>
		<path id="Fill-8" fill="#FFFFFF" d="M2.675,5.753c0,0-0.736,2.521,1.315,4.214c0,0,1.097,0.998,2.718,0.97
			c0,0,1.971-0.083,3.037-1.441c0,0,1.368-1.608,0.862-3.772h1.251v5.918c0,0-0.023,0.398-0.396,0.398H1.75
			c0,0-0.379-0.072-0.379-0.38c0-0.306,0.014-5.907,0.014-5.907H2.675z"/>
		<path id="Fill-10" fill="#FFFFFF" d="M9.247,6.841c0,1.442-1.169,2.61-2.611,2.61s-2.612-1.168-2.612-2.61
			c0-1.442,1.17-2.612,2.612-2.612S9.247,5.399,9.247,6.841"/>
	</g>
</g>
</svg>
