<?xml version="1.0" encoding="utf-8"?>
<!-- Generator: Adobe Illustrator 16.0.3, SVG Export Plug-In . SVG Version: 6.00 Build 0)  -->
<!DOCTYPE svg PUBLIC "-//W3C//DTD SVG 1.1//EN" "http://www.w3.org/Graphics/SVG/1.1/DTD/svg11.dtd">
<svg version="1.1" id="Layer_1" xmlns="http://www.w3.org/2000/svg" xmlns:xlink="http://www.w3.org/1999/xlink" x="0px" y="0px"
	 width="67.369px" height="80px" viewBox="-9.684 -23 67.369 80" enable-background="new -9.684 -23 67.369 80"
	 xml:space="preserve">
<g>
	<path fill="#F0504D" d="M55.044-12.085L25.356-22.762C24.916-22.918,24.458-23,23.993-23s-0.929,0.082-1.374,0.24L-6.961-12.083
		c-1.599,0.577-2.723,2.093-2.723,3.789V17c0,5.647,1.826,11.296,5.312,16.787c2.672,4.211,6.39,8.336,10.995,12.269
		c7.699,6.575,15.335,10.369,15.657,10.525C22.847,56.86,23.47,57,24.082,57c0.607,0,1.215-0.135,1.774-0.407
		c0.321-0.154,7.955-3.886,15.661-10.438c4.61-3.917,8.274-8.045,10.948-12.267c3.484-5.504,5.22-11.187,5.22-16.889V-8.294
		C57.685-9.994,56.648-11.509,55.044-12.085z"/>
	<path fill="#76BE83" d="M52.828,16.673c0,0,1.641,17.083-26.372,33.799c-0.814,0.488-1.695,0.757-2.456,0.852V16.673"/>
	<path fill="#FFFFFF" d="M-4.519,16.673c0,0-1.628,18.534,26.184,33.799c0.825,0.454,1.576,0.757,2.335,0.852V16.673"/>
	<path fill="#FFFFFF" d="M24.008-18.491v35.197h28.821V-6.542c0,0-0.194-1.814-1.737-2.329c-1.549-0.513-26.287-9.477-26.287-9.477
		S24.354-18.501,24.008-18.491z"/>
	<path fill="#B6E4FA" d="M23.997-18.491v35.197H-4.528V-6.542c0,0,0.192-1.814,1.722-2.329c1.53-0.513,26.013-9.477,26.013-9.477
		S23.655-18.501,23.997-18.491z"/>
</g>
</svg>
