<?xml version="1.0" encoding="utf-8"?>
<!-- Generator: Adobe Illustrator 16.0.3, SVG Export Plug-In . SVG Version: 6.00 Build 0)  -->
<!DOCTYPE svg PUBLIC "-//W3C//DTD SVG 1.1//EN" "http://www.w3.org/Graphics/SVG/1.1/DTD/svg11.dtd">
<svg version="1.1" id="Layer_1" xmlns="http://www.w3.org/2000/svg" xmlns:xlink="http://www.w3.org/1999/xlink" x="0px" y="0px"
	 width="35px" height="108px" viewBox="0 0 35 108" enable-background="new 0 0 35 108" xml:space="preserve">
<path fill="#808080" d="M16,108V31.378c0,0,1.333,3.033,3,3.98C19.139,35.472,19,108,19,108H16z"/>
<g>
	<g>
		<g>
			<path fill="#FBC55A" d="M17.235,17.344l-0.006,10.47c0.004,2.212,1.167,4.373,3.251,5.572c3.133,1.803,7.162,0.771,8.999-2.304
				s0.786-7.027-2.349-8.829l-9.208-5.294C17.618,16.782,17.236,16.998,17.235,17.344L17.235,17.344z M17.235,17.344"/>
			<path fill="#F89720" d="M17.233,17.344l-0.007,10.47c6.146-2.119,0.694-10.854,0.694-10.854
				C17.616,16.782,17.233,16.998,17.233,17.344L17.233,17.344z M17.233,17.344"/>
		</g>
		<g>
			<path fill="#76BE83" d="M17.909,16.93l0.007-10.472c-0.005-2.211-1.167-4.373-3.25-5.57c-3.134-1.804-7.164-0.771-9,2.304
				c-1.837,3.074-0.786,7.027,2.349,8.829l9.208,5.295C17.526,17.49,17.909,17.274,17.909,16.93L17.909,16.93z M17.909,16.93"/>
			<path fill="#259E49" d="M17.922,16.924L17.93,6.452c-6.146,2.12-0.694,10.856-0.694,10.856
				C17.54,17.484,17.922,17.268,17.922,16.924L17.922,16.924z M17.922,16.924"/>
		</g>
	</g>
	<path fill="#B6E4FA" d="M17.329,16.824L6.655,16.817c-2.254,0.006-4.456,1.146-5.679,3.188c-1.836,3.075-0.785,7.027,2.349,8.829
		c3.134,1.803,7.164,0.771,9-2.304l5.398-9.034C17.901,17.2,17.682,16.824,17.329,16.824L17.329,16.824z M17.329,16.824"/>
	<path fill="#72C1E9" d="M17.319,16.828L6.644,16.821c2.162,6.028,11.068,0.682,11.068,0.682
		C17.89,17.204,17.671,16.828,17.319,16.828L17.319,16.828z M17.319,16.828"/>
	<path fill="#F0504D" d="M17.814,17.449l10.676,0.008c2.253-0.004,4.456-1.146,5.679-3.189c1.837-3.075,0.785-7.028-2.349-8.83
		s-7.164-0.77-9.001,2.303l-5.398,9.034C17.244,17.073,17.462,17.449,17.814,17.449L17.814,17.449z"/>
	<path fill="#BD2327" d="M17.797,17.447l10.675,0.008c-2.161-6.03-11.067-0.682-11.067-0.682
		C17.226,17.071,17.444,17.447,17.797,17.447L17.797,17.447z M17.797,17.447"/>
</g>
</svg>
